<?xml version="1.0" standalone="no"?>
<!DOCTYPE svg PUBLIC "-//W3C//DTD SVG 20010904//EN"
 "http://www.w3.org/TR/2001/REC-SVG-20010904/DTD/svg10.dtd">
<svg version="1.0" xmlns="http://www.w3.org/2000/svg"
 width="1280.000000pt" height="831.000000pt" viewBox="0 0 1280.000000 831.000000"
 preserveAspectRatio="xMidYMid meet">
<metadata>
Created by potrace 1.15, written by Peter Selinger 2001-2017
</metadata>
<g transform="translate(0.000000,831.000000) scale(0.100000,-0.100000)"
fill="#4caf50" stroke="none">
<path d="M5001 8288 c-11 -11 -39 -58 -61 -103 -46 -92 -58 -168 -42 -272 8
-61 8 -62 -12 -47 -27 19 -36 18 -36 -4 0 -20 39 -62 57 -62 6 0 13 5 15 11 3
10 118 -149 118 -163 0 -9 -53 -4 -68 6 -23 14 -151 215 -163 255 -6 21 -10
71 -7 112 3 64 10 86 50 166 46 90 46 93 27 103 -11 6 -34 10 -52 8 -30 -3
-36 -10 -82 -102 -49 -97 -50 -101 -53 -203 -4 -116 0 -128 93 -273 25 -39 45
-72 45 -75 0 -3 -70 -5 -156 -5 l-155 0 3 -47 3 -48 135 3 c159 4 190 8 190
28 0 31 18 2 30 -46 l12 -51 46 3 c45 3 47 4 55 41 9 36 11 38 40 31 29 -6 30
-6 24 25 -4 19 -3 30 2 26 10 -5 24 -45 35 -98 6 -26 9 -28 54 -25 l47 3 3 42
c4 51 -28 124 -122 277 -69 114 -71 120 -66 246 1 42 32 116 81 197 19 30 19
32 2 41 -44 22 -72 23 -92 0z"/>
<path d="M5198 8293 c-57 -65 -98 -202 -98 -326 0 -84 -1 -88 -20 -82 -27 9
-27 -24 1 -59 25 -32 39 -33 39 -3 0 22 59 -61 125 -178 l28 -50 -31 29 c-37
35 -47 30 -38 -18 8 -41 17 -49 60 -50 28 -1 32 -5 36 -36 5 -34 7 -35 52 -38
40 -3 47 0 53 18 15 48 -8 109 -96 257 -87 145 -102 184 -97 266 3 57 13 93
47 171 35 79 40 100 30 107 -24 15 -75 10 -91 -8z"/>
<path d="M11133 8300 c-155 -10 -183 -30 -202 -150 -13 -78 -14 -140 -2 -158
10 -16 78 -19 93 -4 6 6 15 50 20 99 6 50 16 94 24 103 13 13 112 15 769 15
l753 0 26 -24 c24 -23 26 -31 26 -108 0 -99 9 -107 77 -74 l44 21 -6 58 c-11
95 -32 155 -65 187 -27 26 -41 31 -113 37 -106 8 -1297 7 -1444 -2z"/>
<path d="M9615 8286 c-78 -19 -92 -30 -101 -78 -16 -93 -7 -219 21 -303 31
-94 185 -410 200 -410 17 1 110 159 158 268 79 179 124 392 97 456 -8 21 -28
36 -70 55 -50 23 -70 26 -156 25 -55 0 -121 -6 -149 -13z m255 -111 c38 -46
-78 -465 -129 -465 -10 0 -72 134 -101 220 -16 46 -23 92 -24 154 -1 88 0 90
24 97 14 4 68 7 121 8 74 1 99 -2 109 -14z"/>
<path d="M3059 8213 c-11 -12 -13 -45 -11 -135 l3 -118 -29 0 c-16 0 -50 -3
-75 -6 l-47 -7 6 -131 6 -131 -61 -125 c-106 -217 -128 -340 -81 -463 28 -75
104 -153 185 -192 84 -40 194 -41 276 -4 68 32 120 82 157 152 25 48 27 61 26
162 0 122 -21 206 -77 325 -30 64 -31 68 -35 243 l-4 177 -79 0 -80 0 3 121
c3 110 1 122 -16 135 -26 19 -50 18 -67 -3z m-39 -537 c0 -2 -11 -53 -26 -112
-33 -141 -51 -301 -38 -344 14 -48 37 -60 67 -32 31 30 44 28 52 -8 6 -27 37
-60 57 -60 5 0 13 11 18 25 11 28 31 32 50 10 19 -23 48 -18 66 10 23 35 14
106 -33 260 -51 172 -55 189 -36 173 19 -16 96 -169 116 -233 54 -170 10 -315
-113 -377 -102 -51 -202 -28 -295 67 -94 97 -98 175 -19 373 52 131 112 252
125 252 5 0 9 -2 9 -4z m115 -171 c24 -80 47 -155 50 -166 5 -16 1 -19 -23
-19 -16 0 -37 9 -47 21 -14 14 -29 19 -55 17 l-35 -3 3 40 c7 92 47 273 58
262 3 -3 25 -71 49 -152z"/>
<path d="M6792 8220 l-253 -7 -36 -35 c-26 -26 -39 -51 -49 -94 -17 -73 -18
-156 -2 -172 16 -16 73 -15 85 1 6 6 15 52 20 100 6 48 13 91 16 94 24 24
1525 29 1549 5 7 -7 14 -50 18 -102 5 -95 13 -110 57 -110 45 0 56 26 51 124
-3 71 -9 100 -27 132 -41 73 -5 69 -621 70 -305 1 -669 -2 -808 -6z"/>
<path d="M895 8129 c-96 -14 -193 -38 -294 -72 -150 -51 -136 30 -139 -755 -2
-521 1 -672 10 -691 16 -30 100 -62 267 -102 147 -36 172 -35 182 4 11 42 -14
60 -117 84 -123 29 -202 60 -217 86 -9 17 -12 150 -12 567 0 300 4 575 8 611
l8 66 101 32 c167 52 266 65 508 65 233 0 332 -12 495 -59 104 -30 131 -46
148 -83 9 -20 12 -178 12 -615 0 -511 -2 -589 -15 -597 -15 -10 -193 -67 -278
-90 -47 -12 -68 -44 -57 -88 6 -23 9 -24 53 -17 129 19 378 100 397 130 11 16
15 161 21 701 l7 680 -94 36 c-112 43 -214 74 -312 95 -86 18 -587 27 -682 12z"/>
<path d="M9254 8025 c-77 -40 -189 -123 -247 -183 -30 -31 -38 -46 -35 -68 2
-23 9 -30 30 -32 22 -3 42 11 103 67 87 81 145 123 230 167 48 25 60 35 60 55
0 40 -57 38 -141 -6z"/>
<path d="M7247 7853 c-28 -59 -32 -79 -32 -148 0 -75 3 -85 44 -165 25 -47 53
-103 63 -125 31 -65 34 -70 58 -73 29 -5 40 7 50 52 5 25 4 36 -4 36 -6 1 -18
15 -27 33 -9 18 -37 72 -63 120 -55 106 -57 130 -14 238 34 87 31 99 -20 99
-19 0 -29 -13 -55 -67z"/>
<path d="M7401 7894 c-33 -42 -46 -94 -46 -189 0 -90 0 -90 51 -180 28 -50 57
-107 65 -128 18 -52 33 -63 64 -49 40 19 27 91 -35 187 -78 120 -87 187 -40
297 24 55 28 73 18 80 -25 15 -57 8 -77 -18z"/>
<path d="M7127 7887 c-26 -39 -46 -94 -57 -156 -12 -68 0 -109 66 -221 21 -36
45 -85 55 -110 20 -53 41 -70 67 -54 34 22 26 64 -38 187 -54 107 -60 124 -60
180 0 45 7 77 25 115 33 72 32 82 -9 82 -24 0 -38 -6 -49 -23z"/>
<path d="M9353 7876 c-87 -41 -163 -94 -163 -114 0 -11 9 -27 21 -38 18 -16
23 -16 42 -4 19 12 155 94 197 118 12 8 12 12 -3 35 -21 33 -28 33 -94 3z"/>
<path d="M5293 7884 c-39 -6 -39 -9 -13 -51 16 -26 27 -33 52 -34 18 0 114 -4
213 -8 175 -8 180 -9 201 -34 31 -36 37 -156 32 -689 -3 -425 -4 -437 -24
-465 -15 -20 -34 -30 -65 -36 -24 -4 -322 -8 -661 -10 -727 -2 -654 -17 -668
134 -11 107 -13 796 -4 940 7 96 7 96 42 120 30 20 55 26 169 35 73 6 136 13
139 17 11 11 -26 65 -48 71 -36 9 -159 7 -224 -5 -32 -6 -76 -21 -96 -35 -65
-42 -69 -59 -79 -333 -11 -329 -11 -791 1 -869 10 -75 42 -122 103 -155 l42
-22 605 2 c741 1 781 6 840 85 l25 33 3 515 c2 283 0 552 -3 597 -8 100 -30
138 -96 171 -43 21 -62 23 -250 27 -112 2 -219 1 -236 -1z"/>
<path d="M11135 7880 c-3 -5 -6 -82 -6 -171 0 -170 -1 -165 51 -229 12 -15 26
-58 35 -110 9 -54 20 -89 30 -95 9 -5 39 -27 67 -47 27 -21 54 -38 58 -38 17
0 21 40 15 160 l-6 125 42 29 42 29 -7 166 c-6 170 -15 201 -49 188 -12 -4
-15 -35 -18 -151 -3 -98 -8 -149 -17 -158 -24 -24 -34 9 -47 152 -13 146 -22
173 -50 150 -12 -10 -15 -38 -15 -150 0 -112 -3 -140 -15 -150 -28 -23 -37 4
-49 150 -9 102 -16 144 -27 151 -18 11 -26 11 -34 -1z"/>
<path d="M11910 7823 c-114 -19 -265 -105 -345 -196 -94 -107 -149 -255 -143
-385 3 -60 5 -67 25 -70 25 -4 90 27 115 55 9 10 23 50 32 89 18 90 45 144
104 206 84 90 198 138 326 138 121 0 210 -35 295 -114 52 -50 80 -92 111 -171
35 -87 54 -115 101 -147 99 -67 123 -15 73 158 -36 126 -75 193 -158 272 -81
77 -183 135 -277 157 -59 13 -199 18 -259 8z"/>
<path d="M10455 7806 c-18 -13 -18 -16 8 -102 31 -105 47 -202 47 -300 0 -77
9 -94 52 -94 38 0 42 24 35 174 -8 139 -17 186 -53 274 -28 66 -49 78 -89 48z"/>
<path d="M1186 7628 c-30 -46 -135 -276 -165 -362 -109 -310 -132 -597 -59
-743 51 -102 185 -213 256 -213 67 0 171 85 236 193 47 79 60 164 53 337 -9
211 -61 410 -166 634 -79 169 -119 208 -155 154z"/>
<path d="M5410 7617 c0 -51 21 -62 118 -62 94 0 122 11 122 46 0 30 -33 39
-139 39 -99 0 -101 0 -101 -23z"/>
<path d="M10329 7614 c-10 -12 -10 -27 -1 -73 7 -31 12 -79 12 -105 0 -26 5
-56 10 -67 11 -20 45 -26 55 -9 8 14 8 231 -1 253 -8 22 -57 23 -75 1z"/>
<path d="M7790 7584 c-137 -14 -228 -27 -242 -35 -25 -13 -22 -36 6 -55 21
-13 44 -15 150 -8 69 3 129 6 133 6 12 -2 15 -69 4 -89 -5 -10 -29 -24 -54
-30 -25 -7 -70 -23 -100 -37 l-55 -24 15 -79 c8 -43 35 -166 59 -273 25 -107
48 -218 51 -246 l6 -51 -64 -12 c-78 -15 -419 -26 -436 -14 -8 5 -15 93 -23
268 -6 143 -13 271 -16 284 -5 23 -7 24 -77 18 -40 -4 -88 -9 -108 -13 -35 -6
-37 -5 -52 32 -19 47 -17 49 87 121 38 26 74 56 80 66 15 24 -4 51 -37 55 -30
4 -134 -48 -211 -104 -44 -33 -48 -39 -43 -67 3 -18 23 -69 44 -115 l38 -83
70 6 c39 3 84 8 102 11 l32 5 3 -260 c3 -256 3 -261 26 -283 22 -23 26 -23
260 -23 245 1 342 13 399 51 31 20 30 39 -18 244 -54 233 -83 386 -77 402 3 7
37 21 75 31 98 25 109 38 117 134 4 43 3 98 -1 123 l-8 45 -50 1 c-28 1 -66 0
-85 -2z"/>
<path d="M11906 7515 c-96 -39 -165 -120 -187 -221 -11 -49 -10 -56 7 -75 17
-19 19 -19 31 -3 7 10 13 27 13 38 0 34 45 119 81 153 47 44 114 73 174 73
124 0 245 -112 245 -227 0 -50 25 -69 50 -38 19 23 14 87 -12 141 -71 153
-247 223 -402 159z"/>
<path d="M2365 7491 c-15 -29 -14 -31 18 -55 44 -34 176 -96 204 -96 24 0 46
30 38 52 -9 24 -196 128 -229 128 -9 0 -22 -13 -31 -29z"/>
<path d="M9674 7431 c-61 -37 -84 -143 -43 -195 47 -60 117 -70 179 -26 56 40
77 123 46 178 -32 59 -122 80 -182 43z m100 -77 c20 -19 21 -58 2 -73 -8 -7
-30 -11 -48 -9 -30 3 -33 7 -36 38 -5 52 46 80 82 44z"/>
<path d="M3703 7411 c-84 -29 -133 -55 -133 -70 0 -5 8 -19 18 -32 l19 -22 74
17 c124 30 178 54 185 82 16 62 -32 70 -163 25z"/>
<path d="M7290 7416 c0 -8 5 -18 10 -21 6 -3 10 3 10 14 0 12 -4 21 -10 21 -5
0 -10 -6 -10 -14z"/>
<path d="M4528 7381 c-9 -63 -25 -61 401 -61 213 0 463 3 554 7 l167 6 0 39 0
38 -559 0 -559 0 -4 -29z"/>
<path d="M12405 7240 c-10 -11 -47 -35 -82 -52 -55 -27 -70 -30 -118 -25 -32
3 -76 17 -106 34 l-51 27 -52 -28 c-28 -16 -64 -33 -80 -37 -48 -14 -155 7
-227 44 l-66 33 -39 -33 c-80 -68 -173 -71 -273 -10 -32 20 -64 37 -71 37 -7
0 -25 -11 -41 -24 -15 -13 -50 -32 -76 -41 -99 -35 -94 -31 -91 -78 3 -42 3
-42 41 -41 21 1 67 14 104 29 59 25 69 27 97 16 127 -52 228 -54 312 -6 l50
28 76 -27 c97 -33 211 -36 277 -6 52 24 67 25 139 4 77 -23 178 -14 254 21
l57 26 51 -26 c29 -15 71 -27 94 -28 l41 -2 0 39 c0 39 -1 40 -72 76 -40 20
-81 44 -91 53 -24 22 -35 21 -57 -3z"/>
<path d="M9005 7234 c-46 -8 -107 -28 -145 -47 l-65 -33 2 -93 c2 -107 19
-151 100 -260 l48 -63 61 4 c89 6 186 57 306 162 149 131 297 311 274 333 -15
15 -494 13 -581 -3z m379 -60 c29 -11 17 -32 -71 -117 -140 -135 -188 -172
-260 -200 l-41 -16 -26 34 c-58 76 -92 171 -73 203 15 24 244 78 407 95 19 2
38 5 42 5 3 1 13 -1 22 -4z"/>
<path d="M9950 7243 c-8 -2 -21 -6 -28 -9 -46 -14 221 -348 363 -453 66 -49
158 -101 179 -101 23 0 109 82 146 139 64 101 90 241 52 287 -27 34 -95 72
-178 100 -60 20 -110 28 -223 35 -158 9 -287 10 -311 2z m445 -129 c92 -19
159 -53 163 -84 5 -30 -34 -137 -65 -177 -13 -18 -32 -33 -42 -33 -48 0 -300
211 -337 282 l-14 27 43 4 c65 5 175 -3 252 -19z"/>
<path d="M12474 7051 c15 -16 43 -37 62 -47 30 -16 36 -17 44 -4 6 9 5 20 -3
29 -15 18 -86 50 -111 51 -18 0 -17 -3 8 -29z"/>
<path d="M11250 7051 c47 -40 114 -81 124 -78 38 13 -44 76 -119 92 l-30 7 25
-21z"/>
<path d="M11528 7032 c-60 -22 -74 -35 -54 -52 22 -18 61 -5 104 35 31 28 34
34 17 34 -11 0 -41 -8 -67 -17z"/>
<path d="M12160 7024 l-35 -15 25 -19 c31 -24 28 -24 68 0 66 40 20 68 -58 34z"/>
<path d="M12385 7004 c-27 -18 -73 -40 -101 -49 -60 -18 -115 -10 -195 31 -50
25 -50 25 -77 6 -15 -11 -47 -29 -71 -42 -60 -30 -129 -22 -234 27 -53 25 -83
34 -91 27 -87 -65 -111 -75 -171 -72 -57 4 -118 26 -176 64 -25 16 -27 16 -94
-25 -38 -22 -79 -41 -91 -41 -34 0 -54 -26 -54 -72 l0 -41 40 7 c22 3 71 18
107 33 l67 27 65 -24 c87 -31 196 -32 265 -1 59 26 72 26 155 2 117 -34 151
-35 235 -6 90 30 101 30 167 9 73 -24 177 -15 251 22 l58 28 68 -33 c86 -42
116 -39 120 10 3 39 -5 49 -58 69 -19 7 -53 25 -75 40 -22 14 -44 28 -50 32
-5 3 -32 -10 -60 -28z"/>
<path d="M11833 7022 c-32 -5 -29 -17 11 -41 38 -24 61 -26 94 -7 19 10 21 14
10 24 -18 14 -86 29 -115 24z"/>
<path d="M2447 6969 c-97 -27 -127 -45 -127 -72 0 -56 43 -60 163 -16 89 32
121 56 115 86 -5 26 -67 27 -151 2z"/>
<path d="M3564 6929 c-19 -21 -19 -21 13 -48 18 -15 74 -49 124 -75 l90 -48
25 23 c13 12 24 28 24 35 0 32 -173 134 -228 134 -17 0 -37 -9 -48 -21z"/>
<path d="M12321 6834 c-247 -80 -336 -82 -566 -9 -90 28 -137 31 -154 11 -30
-36 155 -150 295 -182 181 -40 400 19 534 143 91 84 64 93 -109 37z"/>
<path d="M11224 6846 c-17 -43 27 -106 74 -106 32 0 72 25 72 45 0 8 -21 25
-47 39 -72 36 -92 40 -99 22z"/>
<path d="M9377 6802 c-15 -16 -27 -31 -27 -35 0 -9 118 -91 167 -116 57 -28
81 -27 95 5 15 32 36 14 -198 166 -6 4 -23 -5 -37 -20z"/>
<path d="M12673 6743 c-34 -7 -41 -22 -45 -105 -2 -45 -9 -83 -16 -90 -26 -27
-1526 -28 -1553 -1 -6 6 -14 50 -16 97 l-6 86 -55 0 -54 0 4 -98 c4 -107 19
-147 71 -186 27 -20 42 -21 315 -24 158 -2 523 1 811 7 596 11 561 6 593 97
23 65 24 187 2 208 -8 9 -18 15 -22 15 -4 -1 -17 -4 -29 -6z"/>
<path d="M2816 6658 c-28 -38 -96 -176 -96 -196 0 -11 9 -13 42 -8 54 9 52 7
92 79 56 100 59 113 34 137 -30 28 -43 25 -72 -12z"/>
<path d="M9250 6675 c-19 -23 1 -54 63 -101 64 -47 211 -124 295 -154 61 -22
63 -22 83 -4 13 12 19 28 17 48 -3 27 -8 31 -90 56 -99 31 -190 76 -265 131
-56 42 -83 48 -103 24z"/>
<path d="M3254 6645 c-14 -35 48 -240 77 -255 28 -16 69 5 69 34 0 37 -55 194
-75 216 -21 24 -63 26 -71 5z"/>
<path d="M8131 6603 c1 -27 2 -69 1 -95 -2 -45 -4 -48 -39 -59 -27 -8 -232
-13 -702 -16 -694 -5 -805 -2 -815 24 -3 8 -9 53 -12 99 l-7 84 -53 0 -54 0 0
-65 c0 -99 17 -162 55 -204 l33 -36 721 -3 c396 -1 762 1 812 6 79 8 94 13
120 38 35 33 59 107 59 178 0 90 -5 96 -67 96 l-55 0 3 -47z"/>
<path d="M11602 6221 c-41 -73 -72 -170 -72 -225 0 -71 17 -117 94 -250 35
-61 69 -128 75 -148 13 -38 31 -48 79 -40 18 4 22 11 22 38 0 45 -15 81 -88
201 -71 117 -97 188 -88 238 9 45 26 55 26 15 0 -44 21 -34 40 18 16 47 11 59
-19 42 -28 -15 -27 -7 14 66 l35 62 -32 11 c-50 18 -63 13 -86 -28z"/>
<path d="M11967 6242 c-9 -9 -31 -49 -49 -87 -29 -63 -33 -79 -32 -155 1 -98
10 -123 90 -256 31 -52 58 -109 62 -134 8 -47 22 -57 85 -59 24 -1 27 3 27 29
0 31 -42 152 -62 179 -7 9 2 3 18 -12 29 -26 34 -27 75 -18 24 5 70 12 101 16
55 6 57 5 71 -22 45 -87 60 -318 56 -821 -4 -377 -6 -413 -22 -429 -16 -17
-55 -18 -507 -22 l-490 -3 0 558 c0 308 -3 596 -7 642 l-6 83 105 -7 c116 -7
131 -1 107 43 -22 42 -54 50 -199 54 l-135 4 -32 -49 c-36 -53 -41 -76 -17
-76 8 0 12 -4 9 -10 -3 -5 -41 -10 -84 -10 -43 0 -93 -3 -110 -6 -30 -6 -31
-8 -31 -59 l0 -53 140 -4 c77 -2 144 -8 149 -13 6 -6 13 -81 17 -167 l7 -158
-110 0 c-61 0 -131 -3 -156 -6 -43 -6 -47 -9 -53 -39 -3 -18 -1 -42 5 -54 11
-19 20 -21 119 -22 59 0 125 -3 147 -7 l40 -7 3 -70 c4 -97 -15 -336 -27 -348
-26 -26 -34 14 -40 205 l-6 193 -45 0 -45 0 4 -250 c2 -137 5 -252 7 -254 1
-2 32 -6 68 -8 l65 -6 3 -91 3 -91 75 -8 c88 -9 1115 -5 1125 4 11 11 24 176
35 459 8 188 15 277 23 282 7 4 45 8 86 8 71 0 73 1 67 23 -3 12 -6 38 -6 58
l0 37 -85 7 c-58 5 -85 11 -85 19 0 7 -5 70 -10 140 -14 167 -14 166 95 166
l85 0 0 60 0 60 -37 0 c-21 0 -68 3 -105 7 l-68 6 -25 56 c-14 30 -37 69 -50
87 l-24 31 -128 -23 c-70 -13 -147 -23 -170 -24 -40 0 -42 1 -67 53 -30 61
-45 173 -28 203 10 16 11 12 12 -25 l0 -44 68 6 c37 4 192 7 345 7 l277 0 0
55 c0 48 -3 55 -22 60 -13 3 -164 5 -336 3 -171 -2 -312 1 -312 5 0 4 10 26
23 48 22 39 22 40 3 54 -27 20 -59 19 -79 -3z"/>
<path d="M2367 6243 c-9 -8 -9 -919 -1 -962 l7 -31 732 0 732 0 6 98 c4 53 7
277 8 497 l1 400 -739 3 c-407 1 -743 -1 -746 -5z m1328 -112 c62 -11 -550
-20 -900 -13 -171 4 -292 9 -270 13 57 9 1122 9 1170 0z m45 -85 c0 -13 -6
-28 -12 -34 -15 -12 -1200 -29 -1236 -18 -17 6 -22 15 -22 42 l0 34 635 0 635
0 0 -24z m0 -124 l0 -39 -272 -6 c-328 -8 -921 -7 -963 2 -25 5 -31 12 -33 38
l-3 32 138 4 c76 1 362 4 636 5 l497 2 0 -38z m-67 -89 c68 -6 68 -6 65 -35
l-3 -28 -633 -3 -632 -2 0 22 c0 12 6 25 13 30 6 4 75 10 152 14 201 8 958 10
1038 2z m67 -143 c0 -17 -6 -32 -12 -34 -7 -3 -286 -7 -620 -10 -537 -5 -609
-3 -623 10 -25 25 -19 52 13 57 15 2 300 5 635 6 l607 1 0 -30z m0 -98 c0 -10
-6 -27 -14 -38 -14 -18 -34 -19 -635 -23 l-621 -3 0 25 c0 14 6 29 13 34 22
15 186 19 725 21 507 2 532 1 532 -16z m-10 -114 c0 -7 3 -23 6 -35 l6 -23
-623 0 c-343 0 -630 4 -637 9 -27 17 -9 46 33 52 22 3 304 7 628 8 464 1 587
-2 587 -11z m-296 -109 c177 -1 266 -4 241 -10 -50 -10 -1110 -12 -1156 -1
-33 7 544 21 605 15 16 -2 155 -4 310 -4z"/>
<path d="M9550 6231 c-17 -32 16 -91 51 -91 19 0 59 44 59 66 0 42 -90 62
-110 25z"/>
<path d="M11780 6220 c-36 -51 -70 -140 -77 -200 -4 -44 0 -75 16 -129 12 -40
19 -76 15 -82 -6 -11 36 -79 49 -79 9 0 1 17 -21 43 -8 9 -13 20 -9 23 16 16
117 -159 117 -204 0 -27 33 -42 70 -32 32 8 37 41 16 109 -8 28 -11 53 -6 56
12 8 1 41 -22 62 -20 18 -20 17 -14 -4 12 -37 1 -27 -36 35 -88 142 -93 188
-35 322 21 47 37 91 37 98 0 7 -15 12 -39 12 -32 0 -43 -5 -61 -30z"/>
<path d="M9780 6220 c-23 -23 -24 -29 -10 -64 8 -21 16 -26 45 -26 64 0 86 73
29 98 -34 16 -41 15 -64 -8z"/>
<path d="M4935 6117 c-241 -168 -225 -161 -225 -100 l0 33 -84 0 -84 0 -6 -82
c-3 -46 -7 -97 -9 -114 -2 -27 -16 -43 -97 -105 l-95 -74 -6 -175 c-9 -233 -9
-583 -1 -645 l7 -50 41 -3 41 -3 6 373 c3 205 9 387 14 403 10 34 107 113 358
294 185 133 303 211 322 211 21 0 397 -288 572 -438 l33 -28 6 -407 5 -407 39
0 c22 0 40 5 43 13 2 6 6 203 10 437 l6 426 -112 93 c-184 154 -597 462 -618
461 -4 0 -78 -51 -166 -113z"/>
<path d="M7175 6189 c-121 -10 -330 -68 -392 -107 -17 -11 -28 -563 -18 -915
l7 -269 47 -20 c81 -35 222 -78 256 -78 39 0 58 19 53 56 -3 25 -9 29 -68 44
-36 10 -92 29 -125 43 l-60 25 -3 229 -2 230 52 12 c29 6 72 20 96 31 40 18
42 21 42 65 0 52 -10 56 -69 25 -22 -11 -58 -22 -80 -26 l-41 -7 0 240 0 240
82 32 c116 45 202 54 486 48 264 -5 298 -10 431 -65 l66 -28 2 -209 c2 -116 0
-215 -5 -222 -5 -9 -24 -7 -74 5 -66 15 -66 15 -126 -11 -33 -15 -76 -27 -96
-27 -45 0 -48 -21 -9 -62 32 -34 41 -34 118 -6 57 20 64 20 120 7 l60 -15 3
-251 2 -252 -102 -31 c-138 -43 -152 -50 -156 -82 -7 -58 49 -57 245 7 l111
35 7 493 c3 270 5 539 3 596 l-3 105 -162 53 c-156 51 -166 53 -325 63 -181
11 -241 11 -373 -1z"/>
<path d="M640 6151 c-245 -8 -265 -14 -301 -87 l-23 -49 -4 -630 c-4 -671 5
-938 33 -981 8 -13 30 -32 48 -41 30 -17 83 -18 707 -21 687 -3 892 4 935 32
12 8 30 32 41 53 17 35 19 72 22 488 2 248 -1 608 -5 802 -8 334 -9 353 -29
380 -42 56 -48 57 -659 59 -308 0 -652 -2 -765 -5z m1327 -124 c17 -17 18 -62
18 -777 0 -712 -1 -760 -18 -777 -16 -16 -54 -18 -390 -26 -474 -10 -1083 -5
-1118 10 -18 8 -28 22 -33 43 -8 44 -6 1391 3 1462 4 32 10 61 14 64 15 16
283 22 884 20 583 -1 623 -2 640 -19z"/>
<path d="M1135 5903 c-156 -24 -281 -88 -390 -197 -128 -129 -178 -255 -179
-451 0 -184 51 -304 189 -442 65 -64 100 -90 166 -122 253 -122 511 -79 708
120 214 216 257 532 106 784 -44 73 -131 163 -205 212 -102 69 -286 113 -395
96z m156 -103 c94 -18 194 -73 268 -147 218 -221 217 -547 -2 -771 -105 -107
-213 -152 -367 -152 -138 0 -243 41 -349 136 -114 102 -173 235 -174 389 -1
277 179 488 468 549 38 7 103 6 156 -4z"/>
<path d="M1119 5601 c-43 -42 -48 -70 -25 -125 26 -62 92 -84 156 -51 40 21
60 53 60 98 0 73 -40 116 -109 117 -37 0 -49 -5 -82 -39z"/>
<path d="M914 5256 c-45 -20 -84 -66 -84 -99 0 -121 146 -173 214 -75 18 25
21 84 6 122 -18 49 -85 74 -136 52z"/>
<path d="M1425 5256 c-50 -23 -70 -52 -70 -106 0 -40 5 -54 29 -79 58 -60 146
-48 181 24 45 97 -47 204 -140 161z"/>
<path d="M9372 6138 c-7 -7 -12 -29 -12 -50 0 -37 1 -38 38 -38 43 0 62 14 62
46 0 44 -58 72 -88 42z"/>
<path d="M10987 6116 c-11 -29 -8 -73 7 -85 9 -8 87 -11 262 -9 l249 3 9 43
c5 23 7 45 4 48 -3 3 -122 8 -265 11 -241 6 -260 5 -266 -11z"/>
<path d="M11834 6085 c-7 -19 -14 -45 -14 -57 l0 -22 20 20 c24 24 39 94 21
94 -7 0 -19 -16 -27 -35z"/>
<path d="M9961 6084 c-12 -15 -21 -30 -21 -34 0 -17 43 -60 59 -60 21 0 61 40
61 61 0 20 -42 59 -62 59 -9 0 -26 -12 -37 -26z"/>
<path d="M9246 5934 c-9 -8 -16 -29 -16 -45 0 -22 5 -30 26 -35 30 -8 72 9 81
32 3 8 1 26 -5 40 -14 28 -61 33 -86 8z"/>
<path d="M9585 5905 c-14 -13 -25 -31 -25 -39 0 -17 38 -56 55 -56 25 0 55 32
55 60 0 18 -8 34 -22 44 -30 21 -35 20 -63 -9z"/>
<path d="M10105 5908 c-27 -15 -35 -28 -35 -60 0 -45 62 -65 93 -30 23 26 21
55 -6 80 -27 25 -26 25 -52 10z"/>
<path d="M9810 5860 c-11 -11 -20 -29 -20 -39 0 -41 59 -68 88 -39 20 20 14
65 -10 82 -29 20 -34 20 -58 -4z"/>
<path d="M9383 5796 c-24 -21 -26 -26 -15 -50 23 -52 102 -42 102 14 0 30 -22
60 -45 60 -8 0 -26 -11 -42 -24z"/>
<path d="M7161 5784 c-27 -34 -61 -127 -68 -185 -7 -56 9 -108 50 -169 83
-122 97 -145 102 -171 7 -32 35 -45 64 -29 19 10 19 12 5 52 -8 23 -37 75 -64
115 -27 40 -56 86 -65 102 -25 48 -19 123 15 201 34 78 37 95 14 104 -25 10
-31 7 -53 -20z"/>
<path d="M7361 5784 c-28 -36 -62 -129 -68 -191 -7 -64 6 -98 86 -229 34 -54
61 -106 61 -116 0 -27 39 -44 57 -25 20 20 5 69 -52 162 -23 39 -50 84 -59
102 -23 45 -21 141 5 211 32 88 33 93 18 103 -21 13 -26 11 -48 -17z"/>
<path d="M7552 5792 c-23 -23 -57 -109 -67 -170 -13 -77 2 -125 67 -224 33
-51 69 -111 78 -134 29 -67 70 -70 70 -6 0 38 -8 53 -94 186 -44 70 -48 81
-47 135 0 39 9 82 27 125 14 36 24 73 22 83 -5 25 -33 28 -56 5z"/>
<path d="M9172 5708 c-31 -31 10 -108 47 -89 30 16 43 38 39 68 -3 24 -8 28
-38 31 -19 2 -41 -3 -48 -10z"/>
<path d="M10152 5678 c-7 -7 -12 -24 -12 -38 0 -14 5 -31 12 -38 28 -28 108
-1 108 37 0 41 -78 69 -108 39z"/>
<path d="M9934 5672 c-31 -21 -22 -71 17 -92 45 -25 94 51 57 88 -13 13 -57
16 -74 4z"/>
<path d="M9252 5608 c-7 -7 -12 -24 -12 -38 0 -33 17 -50 50 -50 29 0 60 27
60 53 0 39 -69 64 -98 35z"/>
<path d="M7415 5576 c-14 -10 -17 -21 -12 -51 13 -77 47 -69 47 12 0 48 -9 58
-35 39z"/>
<path d="M9976 5514 c-20 -19 -21 -58 -2 -73 8 -7 30 -11 48 -9 29 3 33 7 36
36 2 18 -2 40 -9 48 -15 19 -54 18 -73 -2z"/>
<path d="M11165 5508 c-3 -13 -7 -75 -8 -138 l-2 -115 37 -3 c49 -4 56 10 64
141 8 121 2 137 -52 137 -27 0 -35 -5 -39 -22z"/>
<path d="M7210 5515 c0 -32 59 -93 74 -78 10 11 7 20 -20 52 -22 27 -54 42
-54 26z"/>
<path d="M9137 5482 c-21 -23 -22 -65 -2 -82 19 -16 72 -3 85 21 13 23 -1 53
-30 69 -26 14 -34 13 -53 -8z"/>
<path d="M9965 5346 c-11 -8 -24 -29 -30 -47 -11 -32 -15 -34 -61 -37 -26 -2
-54 -8 -61 -14 -16 -13 -17 -52 -2 -80 10 -19 7 -25 -25 -51 -49 -40 -50 -77
-1 -106 32 -19 35 -24 35 -69 0 -55 12 -72 53 -72 22 0 27 -4 23 -17 -3 -10
-10 -54 -16 -98 -17 -121 -13 -115 -80 -115 l-59 0 -6 55 c-5 34 -12 55 -20
55 -7 0 -45 -22 -85 -50 -83 -55 -81 -56 -130 21 -18 27 -37 49 -43 49 -6 0
-50 -38 -98 -85 -124 -122 -125 -121 -312 52 -56 53 -87 74 -87 61 0 -35 -45
-217 -55 -228 -13 -12 -21 -12 -62 -1 -84 24 -115 26 -130 5 -21 -29 -15 -53
20 -74 45 -28 221 -85 239 -77 9 3 19 23 23 44 17 97 27 133 37 133 5 0 37
-21 69 -47 53 -41 67 -47 119 -51 82 -6 100 1 161 59 l52 52 26 -29 c14 -16
35 -42 46 -57 l20 -28 40 30 c51 38 61 38 69 0 7 -35 3 -34 118 -8 50 11 61
11 96 -5 47 -21 70 -16 118 26 19 17 36 29 37 27 1 -2 10 -21 20 -41 18 -41
29 -45 67 -23 36 20 60 19 60 -4 0 -23 11 -27 129 -52 154 -32 187 -23 174 44
-7 34 -24 44 -90 53 -75 10 -75 10 -52 97 12 43 19 81 15 84 -3 3 -49 -15
-102 -41 -53 -25 -102 -46 -109 -46 -8 0 -20 18 -26 40 -15 51 -37 52 -94 5
l-43 -34 -6 31 c-9 45 -7 93 4 123 9 23 14 25 45 19 32 -6 36 -3 56 30 19 33
24 36 69 36 31 0 54 6 64 16 19 18 19 29 2 69 -12 29 -11 31 31 72 38 35 43
44 34 61 -6 11 -26 27 -45 36 -34 16 -35 17 -29 64 4 38 2 52 -12 66 -18 17
-21 17 -92 -1 -18 -4 -25 1 -35 23 -13 32 -37 64 -48 64 -3 0 -15 -6 -25 -14z
m50 -96 c8 -47 -1 -80 -21 -80 -28 0 -42 67 -24 115 8 22 13 25 24 16 8 -7 17
-30 21 -51z m115 -29 c0 -31 -34 -81 -55 -81 -34 0 -25 40 18 88 27 29 37 28
37 -7z m-236 -6 c26 -17 53 -71 42 -83 -19 -18 -106 64 -92 87 10 15 22 14 50
-4z m120 -88 c21 -15 25 -75 5 -88 -8 -5 -25 -8 -39 -7 -20 3 -26 9 -28 36 -2
22 3 41 14 53 20 22 25 23 48 6z m191 -26 c12 -20 -27 -41 -76 -41 -53 0 -61
10 -27 34 24 17 93 22 103 7z m-307 -32 c2 -13 -8 -18 -44 -24 -53 -8 -75 4
-54 30 18 22 94 17 98 -6z m222 -75 c45 -41 51 -64 16 -64 -43 0 -99 61 -81
90 10 17 23 12 65 -26z m-180 -3 c0 -24 -47 -81 -66 -81 -21 0 -17 43 7 74 24
31 59 35 59 7z m86 -48 c13 -29 13 -41 3 -59 -19 -36 -37 -37 -44 -3 -8 37 2
99 16 99 5 0 17 -16 25 -37z"/>
<path d="M9105 5230 c-15 -16 -17 -26 -9 -47 20 -55 62 -56 94 0 13 23 13 28
-4 46 -24 27 -58 27 -81 1z"/>
<path d="M3647 5198 c-15 -12 -17 -48 -19 -363 l-3 -350 -215 0 -215 0 -5 347
c-4 265 -8 350 -18 360 -10 10 -15 10 -22 -2 -6 -9 -10 -172 -10 -387 l0 -373
269 0 269 0 7 143 c10 198 3 613 -11 627 -7 7 -15 6 -27 -2z"/>
<path d="M3750 4963 c0 -137 -3 -326 -7 -420 l-6 -173 -639 0 -638 0 -2 208
c-1 114 0 284 2 378 1 93 -1 185 -5 203 -6 30 -9 32 -43 29 -33 -3 -37 -6 -45
-43 -11 -51 -5 -840 6 -852 5 -4 334 -9 731 -11 l723 -4 6 198 c9 249 9 511 0
637 l-6 97 -39 0 -38 0 0 -247z"/>
<path d="M3026 5163 c-3 -21 -8 -183 -12 -361 l-7 -322 -211 2 -211 3 -7 45
c-3 25 -7 178 -7 340 -1 166 -5 302 -11 310 -18 28 -32 -6 -42 -102 -10 -93
-4 -511 8 -600 l7 -48 252 0 c223 0 254 2 266 17 11 13 14 78 12 342 -2 324
-6 411 -23 411 -4 0 -11 -17 -14 -37z"/>
<path d="M7382 5098 c-88 -190 -155 -359 -146 -368 6 -6 39 -15 75 -21 35 -6
65 -12 67 -14 2 -2 -22 -34 -53 -70 -93 -110 -145 -186 -145 -211 0 -13 4 -24
9 -24 32 0 396 327 396 355 0 13 -21 30 -66 54 l-66 36 53 59 c30 33 54 67 54
76 0 14 -61 107 -113 173 -23 28 -34 20 -65 -45z m75 -50 c11 -13 28 -35 38
-50 l17 -28 -61 -67 c-34 -37 -61 -71 -61 -75 0 -4 14 -17 30 -30 17 -12 30
-25 30 -30 0 -10 -40 -10 -103 -2 l-45 6 18 52 c9 28 30 80 45 116 15 36 34
80 42 98 16 38 23 39 50 10z m53 -316 c0 -8 -26 -34 -62 -61 -29 -22 -20 3 13
37 31 31 49 40 49 24z"/>
<path d="M5251 5041 c-57 -79 -87 -210 -71 -309 8 -44 23 -76 74 -152 36 -52
75 -121 87 -153 20 -53 24 -57 54 -57 77 0 67 46 -45 216 -106 162 -112 220
-39 386 24 55 28 72 18 84 -19 23 -56 17 -78 -15z"/>
<path d="M4775 5016 c-44 -75 -68 -155 -69 -231 l-1 -70 83 -135 c45 -75 87
-152 93 -173 12 -45 36 -60 70 -43 44 22 32 71 -49 194 -39 59 -79 125 -88
147 -25 61 -16 153 25 247 38 85 36 108 -8 108 -25 0 -35 -8 -56 -44z"/>
<path d="M5027 5033 c-66 -70 -106 -239 -77 -328 7 -21 42 -81 78 -134 36 -52
75 -119 88 -147 26 -60 36 -68 70 -60 49 13 26 101 -56 211 -106 141 -118 241
-46 399 15 33 24 66 22 73 -9 22 -51 14 -79 -14z"/>
<path d="M9102 5033 c-14 -26 -32 -141 -32 -202 0 -48 3 -56 47 -102 26 -28
60 -58 76 -66 26 -13 31 -13 45 1 14 14 14 24 -2 108 -9 51 -27 134 -39 183
-22 89 -23 90 -54 93 -23 2 -34 -2 -41 -15z"/>
<path d="M4212 4663 l3 -58 242 0 c133 0 244 3 248 6 3 4 -3 28 -13 55 l-20
49 -231 3 -232 2 3 -57z"/>
<path d="M4854 4705 c-10 -25 56 -115 83 -115 19 0 16 30 -10 74 -25 44 -64
65 -73 41z"/>
<path d="M5415 4713 c-75 -4 -105 -11 -105 -23 0 -6 16 -28 36 -50 l36 -40
257 1 c141 1 267 4 281 8 20 5 26 14 28 45 6 66 6 66 -247 64 -124 -1 -253 -3
-286 -5z"/>
<path d="M5086 4701 c-13 -20 81 -121 97 -105 7 7 -19 82 -34 101 -13 15 -55
18 -63 4z"/>
<path d="M9395 4170 c-144 -20 -1201 -291 -1223 -314 -12 -11 -11 -18 2 -44 9
-17 20 -33 25 -37 6 -3 90 17 188 46 191 55 684 177 928 229 141 31 153 32
215 20 82 -16 632 -154 895 -225 259 -70 280 -73 294 -47 6 11 11 34 11 49 l0
29 -592 147 c-326 81 -613 149 -638 151 -25 3 -72 1 -105 -4z"/>
<path d="M6600 4145 c-41 -7 -230 -52 -420 -100 -190 -48 -425 -107 -523 -131
-242 -58 -247 -60 -247 -90 0 -39 18 -64 45 -64 14 0 224 52 468 116 768 201
734 195 940 150 214 -47 578 -136 805 -198 123 -33 227 -56 232 -52 4 5 12 25
19 43 9 27 9 38 -1 47 -13 13 -856 227 -1033 262 -143 29 -200 32 -285 17z"/>
<path d="M12446 4134 c-8 -7 -20 -31 -26 -51 -28 -91 -29 -93 -74 -93 -51 0
-122 -21 -175 -52 l-40 -23 -23 21 c-13 12 -42 34 -66 49 l-43 28 -24 -23
c-14 -13 -25 -31 -25 -41 0 -10 26 -39 58 -65 31 -26 57 -49 57 -53 -1 -3 -7
-33 -14 -66 -12 -55 -11 -140 4 -190 5 -16 -4 -25 -49 -48 -30 -16 -61 -36
-70 -46 -14 -15 -13 -20 7 -49 12 -17 26 -32 30 -32 4 0 37 20 73 44 l65 44
56 -34 c48 -29 104 -47 177 -56 13 -2 23 -15 28 -38 25 -97 30 -109 47 -115
10 -3 30 -1 45 4 31 13 34 40 10 116 l-17 52 70 69 c49 48 74 82 83 109 l12
40 74 -3 c80 -5 104 5 104 42 0 37 -16 47 -83 56 -36 4 -70 11 -76 15 -7 3
-24 35 -40 70 -17 38 -48 81 -75 108 l-46 44 25 57 c21 47 33 106 22 106 -1 0
-17 4 -35 9 -24 7 -35 6 -46 -5z m-33 -258 c60 -25 117 -111 117 -177 0 -33
-31 -104 -58 -132 -64 -68 -147 -84 -222 -44 -100 52 -137 156 -90 251 44 93
162 140 253 102z"/>
<path d="M3865 4133 c-179 -39 -1094 -278 -1141 -298 -38 -16 -41 -23 -18 -66
19 -37 -22 -44 419 71 825 216 814 214 955 186 124 -25 554 -135 869 -223 261
-72 275 -75 288 -58 7 11 13 34 13 52 0 38 -1 39 -138 78 -169 47 -844 216
-960 240 -107 23 -231 31 -287 18z"/>
<path d="M1180 4101 c-171 -37 -895 -234 -1078 -292 -51 -17 -96 -37 -99 -45
-3 -9 -1 -26 5 -40 16 -34 54 -32 219 16 247 73 785 221 913 252 95 23 138 29
180 25 79 -9 414 -85 795 -181 182 -46 346 -86 367 -90 46 -8 68 12 68 64 0
31 -4 39 -22 44 -76 21 -887 203 -1071 241 -126 25 -184 27 -277 6z"/>
<path d="M5986 3606 c-53 -123 -96 -231 -96 -240 0 -13 19 -16 120 -18 l121
-3 -1 -479 c0 -264 -2 -481 -4 -483 -2 -2 -95 -8 -207 -13 -112 -4 -212 -11
-221 -15 -11 -4 -18 -18 -18 -35 0 -26 3 -27 61 -34 80 -8 884 -8 1487 1 l472
6 0 49 0 48 -139 0 c-96 0 -142 4 -147 12 -4 6 -7 31 -7 54 0 33 8 55 36 96
20 29 39 69 42 89 8 42 -12 97 -49 134 -23 23 -32 25 -118 24 -51 0 -175 -8
-276 -18 l-183 -17 -31 57 c-16 32 -55 88 -87 125 -31 36 -66 82 -79 101 -28
41 -77 73 -114 73 -27 0 -126 -34 -141 -49 -4 -4 6 -50 23 -102 44 -139 80
-305 115 -536 6 -40 5 -43 -22 -54 -31 -12 -267 -9 -279 4 -17 17 -22 139 -23
545 l-1 422 113 0 c61 0 118 4 126 9 19 12 13 26 -102 264 l-100 207 -87 0
-87 0 -97 -224z m232 129 c22 -27 128 -259 134 -290 3 -19 -3 -20 -174 -23
-153 -2 -178 0 -178 13 0 29 104 279 128 308 22 25 67 22 90 -8z m373 -697
c37 -40 128 -165 155 -215 18 -34 24 -57 20 -80 -4 -26 -1 -33 12 -33 8 0 133
7 276 16 143 8 270 13 283 9 39 -9 63 -41 63 -84 0 -60 -11 -65 -196 -71 -90
-4 -167 -9 -171 -13 -3 -4 0 -7 8 -7 8 0 73 -7 144 -15 72 -8 133 -15 138 -15
4 0 7 -34 7 -75 l0 -75 -344 0 c-284 0 -346 2 -355 14 -7 8 -16 55 -21 105
-13 120 -43 254 -86 376 -49 141 -50 149 -23 169 32 22 64 20 90 -6z"/>
<path d="M11266 3729 c-14 -17 -26 -34 -26 -38 0 -3 35 -43 78 -87 101 -105
1179 -1155 1203 -1172 16 -11 23 -8 51 17 31 28 32 31 18 55 -8 13 -168 172
-355 352 -187 181 -468 454 -625 607 -157 153 -293 283 -302 288 -12 7 -23 1
-42 -22z"/>
<path d="M1044 3645 c-153 -20 -217 -41 -270 -88 -84 -74 -213 -293 -266 -452
-20 -62 -23 -89 -23 -235 0 -161 1 -166 28 -220 45 -89 48 -90 208 -90 l139 0
0 -70 0 -70 424 -2 424 -3 5 68 c2 37 6 69 8 72 2 2 75 7 161 11 l158 7 27 56
c27 55 28 60 27 226 0 150 -3 178 -23 235 -57 162 -165 352 -258 451 -90 96
-143 110 -443 114 -152 3 -258 -1 -326 -10z m519 -95 c84 -12 132 -36 183 -92
46 -50 132 -189 174 -282 33 -72 40 -136 15 -136 -8 0 -30 -14 -49 -30 -18
-17 -64 -43 -101 -58 -87 -35 -110 -63 -110 -140 0 -42 6 -67 24 -95 13 -21
21 -41 17 -44 -9 -9 -715 -17 -769 -9 l-46 7 19 42 c11 23 20 64 20 91 0 44
-4 53 -40 87 -25 24 -58 43 -85 50 -28 7 -59 25 -84 50 -27 27 -48 39 -68 39
-51 0 -59 12 -45 67 26 96 129 275 210 364 40 46 88 62 223 78 185 22 404 26
512 11z m412 -594 c21 -32 10 -58 -24 -54 -31 4 -40 37 -16 62 21 21 22 20 40
-8z m-1299 -4 c19 -13 23 -40 8 -53 -30 -25 -85 26 -57 54 8 9 35 9 49 -1z
m1174 -72 c10 -5 24 -25 30 -44 9 -28 8 -40 -4 -64 -17 -33 -34 -42 -75 -42
-39 0 -66 33 -66 80 0 66 58 101 115 70z m-995 -25 c32 -31 34 -86 5 -115 -30
-30 -83 -27 -109 6 -63 80 34 180 104 109z m-211 -46 c14 -17 26 -36 26 -43 0
-7 11 -29 24 -49 28 -41 25 -47 -20 -47 -58 0 -93 53 -94 143 0 38 31 36 64
-4z m1351 -8 c9 -28 -11 -104 -31 -118 -10 -7 -35 -13 -57 -13 l-39 0 31 36
c18 20 39 53 47 75 17 42 39 51 49 20z m-361 -267 c9 -3 16 -17 16 -30 l0 -24
-357 2 c-348 3 -358 4 -358 23 0 12 9 22 25 26 31 9 652 11 674 3z"/>
<path d="M1153 3469 c-117 -9 -219 -32 -246 -57 -28 -25 -96 -172 -103 -223
-9 -67 7 -77 162 -96 237 -28 722 -3 789 41 45 30 42 56 -19 182 -68 138 -69
138 -242 153 -132 12 -190 12 -341 0z m447 -87 c27 -13 44 -34 74 -95 50 -96
46 -102 -79 -117 -103 -13 -584 -17 -662 -6 -45 7 -53 11 -53 30 0 35 66 163
92 177 32 18 140 26 383 27 182 2 215 0 245 -16z"/>
<path d="M9155 3459 c-27 -5 -84 -7 -127 -3 -88 7 -125 0 -108 -21 6 -7 34
-19 63 -25 29 -7 73 -21 99 -32 42 -18 48 -24 55 -61 11 -54 42 -75 124 -83
103 -10 197 3 225 31 22 22 24 33 24 115 l0 90 -152 -1 c-84 -1 -175 -5 -203
-10z m263 -45 c21 -6 23 -11 20 -63 l-3 -56 -105 -3 c-97 -3 -106 -1 -122 19
-18 22 -23 65 -10 85 4 7 16 14 27 17 30 7 166 8 193 1z"/>
<path d="M11160 3251 c-64 -67 -123 -147 -159 -219 -31 -61 -61 -185 -61 -251
0 -304 299 -554 610 -512 97 13 189 43 255 83 53 33 178 132 208 166 19 20 19
21 -15 26 -18 3 -82 7 -143 10 -200 10 -329 59 -436 165 -110 110 -151 215
-170 436 -6 72 -15 137 -20 145 -6 12 -21 2 -69 -49z m0 -259 c0 -32 53 -168
86 -220 102 -161 233 -246 483 -312 51 -14 49 -16 -55 -59 -98 -42 -169 -51
-259 -36 -235 41 -393 258 -355 485 6 38 25 97 42 132 28 59 30 62 44 44 8
-11 14 -26 14 -34z"/>
<path d="M4777 3223 c-42 -5 -57 -27 -57 -89 l0 -35 -37 30 c-160 127 -407
-51 -297 -213 l27 -39 -109 6 c-60 4 -329 10 -599 13 l-490 7 3 42 4 43 -41 7
c-22 4 -45 4 -51 0 -6 -4 -10 -111 -10 -309 l0 -303 -31 -7 c-17 -3 -46 -6
-63 -6 -45 0 -58 -12 -54 -51 l3 -34 530 -6 c292 -3 737 -8 990 -10 l460 -3 0
44 0 45 -62 3 -63 3 0 434 c0 239 -3 434 -7 433 -5 -1 -25 -3 -46 -5z m-177
-158 c17 -9 30 -24 30 -34 0 -28 -44 -62 -88 -68 -97 -13 -114 69 -22 106 35
14 47 13 80 -4z m118 -152 c-3 -24 -8 -28 -38 -31 l-35 -4 29 31 c37 38 48 39
44 4z m-437 -122 c20 -7 28 -18 32 -48 6 -38 -5 -118 -17 -131 -12 -11 -373
-17 -707 -11 -370 6 -369 6 -369 87 0 94 6 100 110 113 90 11 919 3 951 -10z
m420 -28 c19 -19 23 -114 7 -137 -17 -22 -151 -39 -240 -29 -66 7 -64 2 -51
122 l6 63 133 -4 c87 -2 137 -7 145 -15z m19 -333 l0 -70 -498 0 c-274 0 -607
3 -740 7 l-241 6 -11 30 c-11 34 -13 80 -3 90 3 4 341 7 750 7 l743 0 0 -70z"/>
<path d="M9433 3223 l-863 -3 0 -40 c0 -35 3 -41 28 -47 15 -5 116 -7 225 -5
l197 3 0 -354 0 -354 -127 -6 c-71 -4 -196 -7 -280 -7 l-152 0 -7 -36 c-3 -19
-2 -40 3 -45 5 -5 402 -8 1009 -7 l999 3 3 46 3 46 -268 7 c-147 4 -271 10
-275 12 -10 6 -9 595 0 649 l7 40 215 5 215 5 -3 40 c-5 52 -8 55 -40 53 -15
-2 -415 -4 -889 -5z m53 -93 l344 0 -1 -82 c-1 -46 -4 -96 -8 -113 l-7 -30 -8
30 c-4 16 -13 33 -19 37 -15 9 -396 10 -540 1 l-107 -6 0 -204 0 -203 333 2
332 3 5 60 5 60 8 -49 c4 -27 7 -86 7 -132 l0 -84 -360 0 -360 0 0 361 c0 325
2 361 16 355 9 -3 171 -6 360 -6z m224 -260 c13 -20 13 -176 0 -201 -10 -18
-24 -19 -241 -19 l-229 0 -10 26 c-6 14 -10 65 -10 114 0 84 1 89 23 93 12 3
120 4 240 3 182 -1 219 -3 227 -16z m107 -117 c-3 -10 -5 -4 -5 12 0 17 2 24
5 18 2 -7 2 -21 0 -30z"/>
<path d="M9448 3099 c-22 -12 -23 -52 -3 -69 12 -10 20 -9 41 4 29 19 28 42
-1 62 -14 9 -25 10 -37 3z"/>
<path d="M9192 3088 c-16 -16 -15 -43 3 -58 12 -10 20 -9 40 4 14 9 25 22 25
29 0 18 -21 37 -40 37 -9 0 -21 -5 -28 -12z"/>
<path d="M9317 3094 c-12 -12 -8 -62 6 -67 6 -2 22 0 35 4 34 13 28 63 -8 67
-14 2 -29 0 -33 -4z"/>
<path d="M9714 3092 c-19 -13 -23 -41 -9 -56 28 -28 82 6 70 44 -6 20 -39 27
-61 12z"/>
<path d="M621 2513 l-43 -4 7 -63 6 -63 -38 -6 c-21 -4 -69 -7 -108 -8 -108
-2 -129 -9 -133 -43 -2 -16 2 -34 8 -40 8 -8 208 -10 738 -8 433 2 816 -1 948
-7 265 -13 274 -12 274 54 l0 45 -151 0 -152 0 7 70 7 70 -119 0 c-136 0 -132
3 -132 -93 l0 -48 -433 3 c-394 3 -435 5 -460 21 -22 14 -27 25 -27 60 0 24
-5 48 -12 55 -12 12 -87 13 -187 5z"/>
<path d="M7812 2019 c-92 -11 -175 -32 -271 -71 l-76 -30 -55 18 c-77 25 -221
24 -275 -1 -63 -30 -151 -123 -165 -176 -7 -24 -14 -50 -16 -56 -2 -8 -19 -13
-41 -13 -91 0 -216 -92 -241 -179 -16 -52 -15 -134 2 -174 18 -44 103 -124
146 -139 43 -14 121 -16 218 -4 64 7 72 6 72 -9 0 -9 -27 -87 -60 -172 -63
-163 -73 -215 -42 -229 9 -4 81 -9 160 -12 101 -3 142 -8 142 -16 0 -26 -260
-311 -291 -319 -11 -3 -33 5 -51 19 -52 37 -77 49 -88 38 -10 -10 -40 -258
-40 -335 0 -41 4 -51 25 -65 22 -14 42 -15 187 -5 176 13 230 21 235 37 2 5
-19 37 -46 71 l-49 61 50 48 c166 162 488 507 488 524 0 19 -115 97 -230 155
-30 15 -57 29 -59 32 -3 2 37 46 89 98 l95 95 430 0 c256 0 445 4 466 10 28 8
40 19 53 48 36 83 46 218 22 310 -77 288 -426 484 -784 441z m318 -99 c165
-51 301 -164 375 -312 30 -60 35 -80 34 -137 0 -42 -8 -88 -22 -126 l-22 -60
-355 -7 c-230 -5 -371 -4 -401 3 -42 9 -49 16 -95 87 -53 82 -195 261 -237
301 -14 12 -30 20 -36 17 -17 -11 -79 -128 -139 -260 -30 -66 -61 -129 -70
-138 -10 -12 -30 -18 -61 -18 -25 -1 -73 -6 -106 -13 -144 -31 -255 44 -255
173 0 107 52 161 176 181 42 7 81 18 88 25 7 7 16 31 20 54 17 108 85 175 203
200 49 11 96 1 200 -41 29 -12 38 -10 110 23 92 42 213 75 316 86 79 8 166 -4
277 -38z m-669 -457 c36 -49 75 -105 87 -125 l23 -37 -67 -73 c-80 -89 -184
-217 -184 -226 1 -14 222 -161 263 -175 20 -6 -36 -70 -275 -313 -126 -128
-228 -237 -228 -244 0 -7 10 -28 21 -47 18 -29 20 -37 8 -45 -17 -11 -156 -5
-170 9 -9 9 5 150 16 161 2 2 16 -5 31 -17 15 -11 33 -21 41 -21 8 0 39 24 70
52 60 57 341 376 382 434 l26 36 -24 19 c-20 16 -41 19 -145 20 -66 0 -141 4
-166 7 -43 7 -45 9 -44 39 3 51 245 633 264 633 4 0 36 -39 71 -87z"/>
<path d="M3940 2001 c-29 -11 -59 -26 -66 -35 -8 -12 -6 -52 13 -173 47 -316
82 -559 85 -592 3 -34 3 -34 -55 -47 -135 -32 -247 -132 -247 -223 0 -123 109
-170 279 -119 114 34 161 92 161 201 0 21 -18 156 -39 300 -45 292 -71 481
-71 502 0 21 66 38 119 30 86 -13 109 -10 148 22 21 17 38 39 38 49 0 16 -10
20 -61 26 -41 4 -83 18 -128 42 -77 41 -99 43 -176 17z"/>
<path d="M10995 1991 c-58 -11 -102 -37 -120 -71 -21 -41 -21 -187 1 -218 37
-53 71 -16 80 88 4 48 12 84 21 91 21 18 619 32 1093 25 228 -4 427 -9 442
-12 31 -7 48 -49 48 -116 0 -20 5 -48 11 -62 11 -24 50 -39 76 -29 31 12 29
163 -4 230 -37 76 4 73 -849 78 -417 2 -777 1 -799 -4z"/>
<path d="M4650 1911 c-110 -12 -149 -68 -150 -213 l0 -88 49 0 48 0 7 81 c9
107 14 115 78 122 74 9 1362 7 1426 -2 76 -11 86 -25 92 -129 l5 -87 38 -3
c63 -5 71 8 64 115 -7 115 -26 160 -82 188 -39 19 -61 20 -780 21 -407 1 -765
-1 -795 -5z"/>
<path d="M669 1853 l-66 -4 -128 -267 c-168 -351 -205 -439 -205 -495 0 -139
187 -219 367 -155 l62 21 56 -21 c78 -30 179 -29 260 2 59 23 61 23 111 6 107
-37 187 -34 289 11 43 19 44 19 96 -2 88 -34 212 -27 296 16 22 12 33 11 77
-7 68 -28 205 -30 256 -4 51 26 98 75 111 114 13 40 5 106 -23 176 -29 76
-212 463 -250 531 l-34 60 -84 6 c-103 8 -1098 18 -1191 12z m834 -120 l375
-6 85 -176 c92 -192 115 -247 104 -258 -4 -3 -58 -10 -120 -14 -194 -13 -1205
-30 -1349 -23 l-138 7 7 26 c5 25 56 139 157 354 l45 97 229 0 c126 0 398 -3
605 -7z m642 -600 c-9 -50 -33 -74 -86 -83 -61 -11 -125 3 -158 34 -35 33 -78
34 -122 1 -68 -50 -98 -59 -162 -47 -36 7 -70 21 -89 38 -26 21 -39 25 -71 21
-21 -3 -49 -14 -60 -25 -38 -34 -69 -44 -132 -44 -62 0 -109 16 -134 46 -20
24 -97 21 -110 -3 -14 -26 -87 -53 -143 -53 -50 1 -79 12 -116 45 -28 26 -83
26 -118 0 -80 -57 -130 -66 -199 -34 -49 22 -62 37 -67 76 l-3 30 420 8 c231
4 569 11 750 15 182 5 392 10 469 10 l138 2 -7 -37z"/>
<path d="M11562 1657 c-11 -12 -33 -49 -49 -82 -23 -50 -28 -73 -28 -140 0
-79 1 -81 70 -215 39 -74 76 -150 82 -167 10 -29 16 -33 48 -33 l38 0 -6 38
c-3 20 -31 87 -62 147 -95 188 -104 244 -59 350 35 81 40 105 23 116 -22 14
-34 11 -57 -14z"/>
<path d="M11727 1662 c-9 -9 -31 -49 -49 -87 -28 -59 -33 -81 -33 -141 1 -68
4 -76 85 -242 l85 -171 39 0 39 -1 -7 43 c-4 23 -26 76 -48 117 -114 206 -111
201 -111 259 0 42 9 76 36 136 26 58 33 83 25 92 -15 18 -42 16 -61 -5z"/>
<path d="M11888 1663 c-9 -10 -31 -49 -49 -86 -29 -64 -31 -74 -27 -156 l4
-88 73 -127 c40 -69 76 -139 80 -154 6 -22 14 -28 44 -30 36 -3 37 -3 37 33 0
46 -15 80 -84 195 -89 148 -93 188 -32 327 19 43 32 81 28 85 -18 18 -59 18
-74 1z"/>
<path d="M4799 1652 c-14 -12 -24 -34 -28 -63 -5 -33 -11 -45 -26 -48 -27 -5
-35 -19 -35 -64 0 -33 4 -39 35 -54 32 -15 35 -21 35 -58 0 -28 6 -47 18 -58
24 -22 37 -21 82 4 36 20 39 21 61 5 53 -37 118 -2 104 56 -5 19 1 30 34 56
52 42 54 71 6 109 -23 18 -39 42 -46 68 -6 22 -16 46 -21 53 -15 17 -54 15
-84 -5 -24 -15 -27 -15 -54 0 -36 22 -52 21 -81 -1z m81 -83 l36 -41 29 43
c22 34 30 40 33 26 2 -10 -6 -35 -17 -57 l-20 -39 56 -3 c72 -4 80 -23 13 -32
-27 -4 -50 -11 -50 -17 0 -5 9 -28 21 -50 29 -58 14 -62 -33 -9 -37 42 -40 44
-51 26 -24 -37 -55 -71 -62 -64 -3 3 3 25 15 47 11 23 18 46 16 50 -3 5 -26
12 -51 15 -55 9 -58 24 -6 32 62 10 67 17 42 57 -41 67 -23 77 29 16z"/>
<path d="M10579 1585 c-20 -13 -39 -30 -42 -38 -3 -8 17 -45 45 -83 62 -85 92
-148 118 -249 51 -198 5 -415 -121 -581 -21 -28 -39 -57 -39 -65 1 -19 20 -42
52 -63 28 -18 28 -18 59 15 45 49 114 170 151 268 32 85 32 88 32 261 0 166
-1 179 -28 255 -33 97 -97 215 -144 267 -19 21 -37 38 -41 38 -3 0 -23 -11
-42 -25z"/>
<path d="M5655 1587 c-33 -15 -87 -71 -109 -115 -52 -100 -82 -310 -66 -454
21 -179 47 -244 108 -263 l32 -11 6 -184 c3 -108 10 -190 16 -198 8 -9 32 -12
77 -10 l66 3 5 187 c3 102 9 190 13 194 4 5 22 13 39 19 57 18 92 113 108 290
11 120 0 216 -35 321 -60 179 -162 265 -260 221z m108 -94 c65 -69 108 -225
108 -398 0 -100 -5 -130 -37 -241 -7 -24 -52 -34 -160 -34 -55 0 -66 3 -78 23
-47 72 -63 289 -32 435 29 138 92 242 146 242 16 0 37 -11 53 -27z"/>
<path d="M3033 1419 c-18 -5 -44 -25 -58 -44 -15 -18 -48 -48 -75 -65 -143
-92 -205 -225 -290 -625 -54 -252 -82 -340 -130 -413 -63 -94 -61 -96 70 -89
l110 6 20 -38 c20 -41 46 -61 97 -79 49 -17 98 2 162 63 l56 52 260 7 c348 8
495 17 495 28 0 5 -27 47 -60 92 -47 64 -63 97 -74 147 -60 265 -112 465 -140
538 -62 159 -135 261 -218 306 -29 15 -66 44 -82 63 -16 19 -44 41 -62 48 -37
16 -37 16 -81 3z m162 -211 c125 -80 170 -176 274 -588 37 -146 69 -271 72
-279 8 -26 -57 -32 -426 -38 -387 -6 -465 -2 -465 23 0 26 128 597 145 649 44
131 105 217 177 250 53 24 173 15 223 -17z"/>
<path d="M8907 1423 c-3 -5 -10 -79 -17 -167 -17 -207 -6 -455 25 -593 l5 -23
233 0 c127 0 249 3 270 6 36 6 37 8 37 48 0 79 2 79 238 45 73 -10 150 -19
171 -19 l38 0 26 88 c67 222 147 529 147 561 0 30 -19 28 -214 -25 -209 -56
-377 -94 -387 -88 -4 2 -10 35 -14 72 -11 114 21 102 -285 102 -148 0 -271 -3
-273 -7z m433 -388 l0 -275 -153 0 -154 0 -6 137 c-4 75 -7 198 -7 275 l0 138
160 0 160 0 0 -275z m572 144 c-1 -24 -16 -89 -32 -144 -47 -162 -54 -180 -79
-183 -30 -5 -304 37 -315 48 -11 11 -14 205 -3 216 10 10 408 113 422 110 6
-2 9 -23 7 -47z"/>
<path d="M10366 1391 l-29 -30 42 -61 c53 -80 71 -143 71 -249 -1 -113 -23
-176 -103 -294 -10 -16 -7 -23 23 -48 19 -16 42 -28 50 -27 26 5 89 110 116
195 24 74 26 94 22 195 -6 128 -22 188 -79 282 -44 74 -70 82 -113 37z"/>
<path d="M10146 1251 l-28 -29 27 -57 c39 -79 40 -152 3 -224 l-28 -52 22 -30
c49 -66 92 -38 130 85 25 83 21 179 -12 253 -39 89 -68 103 -114 54z"/>
<path d="M4938 1167 c-35 -21 -37 -21 -55 -4 -48 42 -113 6 -113 -63 0 -29 -4
-40 -15 -40 -25 0 -55 -38 -55 -68 0 -31 21 -55 58 -66 19 -6 22 -14 22 -55 0
-42 3 -49 25 -59 37 -17 59 -15 80 8 22 24 38 25 55 5 7 -8 28 -15 46 -15 40
0 69 36 61 76 -4 21 2 29 34 50 27 16 39 31 39 47 0 30 -26 66 -56 77 -20 8
-24 16 -24 50 0 27 -7 47 -20 60 -25 25 -36 25 -82 -3z m-46 -100 l18 -22 34
40 c39 44 44 37 20 -26 -20 -49 -12 -59 54 -59 58 0 53 -18 -8 -26 -27 -4 -50
-10 -50 -15 0 -4 9 -24 21 -43 22 -38 18 -66 -8 -45 -8 7 -21 25 -29 41 -20
38 -37 35 -68 -12 -15 -23 -31 -38 -36 -35 -10 6 6 62 21 71 24 15 6 32 -41
38 -58 8 -67 26 -12 26 63 0 70 11 44 65 -24 51 -19 84 7 46 9 -12 24 -32 33
-44z"/>
<path d="M11720 1136 c0 -8 5 -18 10 -21 6 -3 10 3 10 14 0 12 -4 21 -10 21
-5 0 -10 -6 -10 -14z"/>
<path d="M11890 1136 c0 -17 14 -29 23 -20 8 8 -3 34 -14 34 -5 0 -9 -6 -9
-14z"/>
<path d="M12060 1113 c0 -20 33 -62 127 -166 29 -32 53 -68 53 -79 0 -31 -47
-88 -86 -104 -71 -30 -226 -8 -368 50 -156 65 -264 57 -350 -27 -68 -65 -78
-150 -31 -261 8 -17 5 -18 -31 -12 -51 9 -143 51 -171 78 -18 17 -23 32 -23
75 0 85 19 142 60 182 20 20 99 69 176 110 185 99 197 107 184 132 -6 10 -21
19 -34 19 -12 0 -90 -33 -172 -74 -164 -81 -244 -143 -275 -211 -25 -55 -25
-175 0 -231 26 -58 93 -111 171 -135 61 -19 88 -21 430 -20 351 1 585 11 642
28 28 9 108 77 108 94 0 5 -7 26 -15 46 -8 19 -15 57 -15 83 0 40 -6 56 -35
92 -19 24 -53 76 -76 116 -45 80 -101 141 -170 189 -61 42 -99 52 -99 26z
m-313 -369 c101 -44 206 -65 365 -71 l147 -6 6 36 c8 41 28 62 49 54 28 -11
44 -52 51 -128 6 -74 6 -75 -20 -87 -43 -20 -65 -15 -76 18 -9 25 -17 30 -56
36 -26 4 -114 4 -197 1 -140 -5 -158 -8 -251 -41 -155 -55 -246 -48 -289 24
-9 16 -16 45 -16 65 0 121 134 167 287 99z m326 -241 c-7 -2 -19 -2 -25 0 -7
3 -2 5 12 5 14 0 19 -2 13 -5z"/>
<path d="M1771 866 c-11 -13 -15 -88 -19 -324 -3 -182 -9 -312 -14 -320 -8 -9
-59 -12 -193 -12 l-182 0 -6 218 c-4 119 -7 260 -7 312 0 102 -10 134 -32 112
-18 -18 -29 -692 -11 -699 7 -3 116 -3 242 -1 172 2 233 6 243 16 20 20 25
669 6 695 -13 17 -15 17 -27 3z"/>
<path d="M740 834 c-11 -28 -14 -563 -4 -638 l7 -46 249 0 249 0 -3 340 c-2
255 -6 342 -15 352 -33 32 -37 -6 -37 -322 l-1 -310 -185 0 c-102 0 -192 5
-200 10 -12 8 -15 55 -18 292 -3 294 -6 348 -23 348 -5 0 -14 -12 -19 -26z"/>
<path d="M1850 487 l0 -374 -222 -6 c-123 -4 -385 -7 -583 -8 l-360 0 -3 371
-2 370 -45 0 -45 0 0 -415 c0 -358 2 -416 15 -421 29 -12 1315 12 1327 24 8 8
13 133 16 422 l5 410 -52 0 -51 0 0 -373z"/>
<path d="M4790 670 c-12 -12 -20 -33 -20 -55 0 -28 -5 -37 -30 -50 -27 -14
-30 -21 -30 -60 0 -42 3 -47 35 -62 32 -15 35 -21 35 -58 0 -22 5 -46 12 -53
18 -18 59 -14 93 8 29 19 29 19 61 0 17 -11 39 -20 48 -20 27 0 56 37 56 72 0
23 9 40 35 64 52 47 42 104 -19 116 -15 2 -22 16 -30 58 -11 54 -12 55 -47 58
-25 2 -42 -3 -54 -14 -17 -17 -19 -17 -47 -1 -39 23 -74 21 -98 -3z m180 -90
c-26 -51 -19 -62 48 -70 l47 -7 -41 -7 c-66 -13 -69 -17 -44 -66 30 -60 11
-76 -25 -21 -15 22 -33 41 -39 41 -6 -1 -24 -19 -39 -42 -38 -54 -58 -38 -27
22 12 23 19 44 16 47 -3 3 -25 8 -51 10 -59 7 -57 19 5 27 28 4 50 11 50 17 0
5 -9 28 -21 50 -28 56 -14 62 28 14 l35 -40 36 44 c42 50 53 41 22 -19z"/>
<path d="M12574 428 c-4 -6 -13 -48 -20 -92 -8 -50 -19 -85 -29 -92 -27 -20
-255 -26 -903 -22 -718 4 -646 -9 -658 116 -3 43 -12 80 -18 84 -6 4 -29 8
-50 8 l-39 0 6 -80 c8 -105 23 -153 59 -187 l29 -28 803 0 c756 0 803 1 829
18 52 34 67 72 67 173 0 57 -4 94 -12 102 -15 15 -55 16 -64 0z"/>
<path d="M4536 343 l-39 -4 7 -87 c14 -173 38 -206 158 -217 40 -3 407 -5 816
-3 l744 3 28 32 c34 37 47 80 56 180 8 87 -1 103 -57 103 -49 0 -59 -18 -59
-103 0 -49 -5 -71 -19 -88 l-19 -24 -364 -8 c-417 -9 -1112 -1 -1139 13 -23
13 -30 38 -38 130 -7 81 -5 80 -75 73z"/>
</g>
</svg>
