<?xml version="1.0" standalone="no"?>
<!DOCTYPE svg PUBLIC "-//W3C//DTD SVG 20010904//EN"
 "http://www.w3.org/TR/2001/REC-SVG-20010904/DTD/svg10.dtd">
<svg version="1.0" xmlns="http://www.w3.org/2000/svg"
 width="1235.000000pt" height="1280.000000pt" viewBox="0 0 1235.000000 1280.000000"
 preserveAspectRatio="xMidYMid meet">
<metadata>
Created by potrace 1.15, written by Peter Selinger 2001-2017
</metadata>
<g transform="translate(0.000000,1280.000000) scale(0.100000,-0.100000)"
fill="#4caf50" stroke="none">
<path d="M6255 12794 c-1016 -26 -1612 -55 -1855 -90 -270 -39 -427 -105 -529
-221 -88 -100 -117 -171 -205 -511 -36 -136 -93 -337 -128 -447 l-63 -199
-115 -22 c-299 -57 -656 -170 -1110 -352 -327 -131 -693 -302 -797 -373 -225
-154 -381 -460 -452 -884 -54 -325 -198 -1860 -306 -3265 -25 -322 -54 -693
-65 -825 -44 -543 -52 -643 -85 -1180 -51 -823 -90 -1319 -141 -1785 -43 -402
-94 -664 -249 -1275 -135 -535 -164 -708 -152 -914 13 -202 73 -336 176 -392
20 -10 47 -28 62 -40 l25 -20 1090 11 c1679 16 1764 19 2564 94 540 50 762 54
1365 25 235 -11 681 -7 1000 11 635 35 799 34 1360 -5 636 -44 731 -48 1150
-49 377 0 455 2 630 22 424 46 1070 65 2045 60 657 -3 666 -3 710 18 51 23
103 71 126 116 24 47 44 155 44 244 0 232 -41 478 -300 1794 -231 1173 -255
1326 -415 2655 -181 1498 -255 2273 -310 3240 -54 950 -100 1292 -217 1615
-72 201 -154 333 -331 535 -277 315 -559 508 -915 625 -159 52 -306 81 -632
124 -387 52 -577 94 -618 140 -22 24 -232 492 -285 636 -19 52 -51 150 -71
217 -99 333 -200 482 -390 573 -97 46 -168 65 -301 80 -95 11 -1046 21 -1310
14z m1213 -144 c242 -17 357 -56 460 -158 72 -71 118 -159 172 -327 91 -284
127 -379 261 -682 263 -595 277 -639 277 -865 1 -488 137 -1106 616 -2803 130
-461 206 -744 206 -770 0 -35 -152 66 -306 203 -121 108 -271 276 -464 523
-321 410 -360 456 -572 665 -226 223 -273 262 -384 318 -107 54 -180 69 -304
63 -88 -4 -121 -11 -205 -41 -152 -55 -352 -108 -749 -197 -545 -122 -734
-174 -891 -248 -91 -42 -115 -63 -115 -95 0 -13 -11 -43 -24 -67 -31 -56 -43
-102 -56 -215 -15 -138 -61 -893 -195 -3199 -102 -1754 -141 -2270 -211 -2750
-86 -600 -115 -939 -98 -1161 l9 -121 -275 -7 c-253 -6 -510 -20 -845 -46 -71
-5 -326 -14 -565 -20 -434 -10 -899 -22 -1590 -40 -201 -5 -585 -15 -855 -21
-269 -6 -494 -15 -500 -20 -32 -30 -77 -31 1905 21 217 5 593 14 835 20 490
12 758 23 1040 45 105 8 305 17 445 20 140 3 289 7 331 10 l77 4 16 -92 c9
-51 16 -96 14 -100 -2 -5 -77 -8 -168 -7 -203 1 -516 -15 -796 -40 -514 -48
-1001 -79 -1299 -85 -170 -3 -778 -10 -1350 -16 -601 -6 -1044 -14 -1049 -19
-6 -6 -2 -12 9 -17 11 -3 604 -1 1320 6 1283 12 1305 12 1700 42 220 16 495
38 610 49 341 32 501 40 781 40 l264 0 10 -25 c5 -14 12 -36 15 -48 l6 -22
-203 3 c-224 4 -541 -10 -785 -33 -798 -77 -1054 -87 -2770 -104 -519 -5 -948
-13 -954 -16 -7 -5 -7 -11 -1 -17 10 -10 2258 5 2582 17 149 5 850 57 1085 80
296 28 485 38 769 39 275 0 289 -1 303 -19 14 -20 8 -20 -369 -27 -367 -6
-490 -13 -943 -58 -537 -53 -558 -53 -2750 -79 -797 -9 -733 -14 -787 66 -100
148 -87 469 39 953 117 452 200 815 248 1094 52 301 124 1097 175 1931 37 594
51 798 85 1225 19 234 55 691 80 1015 110 1417 252 2930 306 3260 65 395 207
676 413 817 175 121 853 411 1311 562 236 78 605 173 618 159 12 -12 -229
-624 -378 -958 -227 -509 -229 -518 -167 -965 25 -182 27 -219 26 -540 0 -284
-4 -382 -23 -555 -50 -475 -121 -893 -219 -1290 -22 -88 -43 -173 -46 -188 -7
-28 -7 -28 121 37 490 250 1145 788 1906 1565 l168 172 37 -11 c53 -14 213
-12 317 5 50 8 203 37 340 65 167 34 287 53 362 57 l113 6 34 -36 c37 -40 49
-44 89 -34 74 20 45 132 -46 175 -97 47 -207 39 -618 -43 -388 -78 -515 -88
-591 -49 -61 31 -58 34 -410 -319 -624 -624 -1105 -1033 -1522 -1296 -95 -60
-112 -69 -103 -53 9 13 76 341 107 516 89 511 139 1076 126 1422 -3 94 -20
280 -37 415 -37 296 -36 404 3 519 15 41 74 183 133 315 207 466 343 816 485
1250 45 138 85 260 88 272 4 13 8 -50 9 -140 7 -659 309 -1757 639 -2318 48
-82 65 -97 85 -72 11 12 8 23 -14 61 -50 84 -165 318 -207 418 -286 685 -468
1519 -446 2047 6 131 4 158 -8 163 -11 4 -7 32 25 157 22 84 46 175 55 202 87
266 248 353 734 394 242 21 892 50 1440 64 283 8 1305 5 1428 -3z m1304 -1579
c107 -25 300 -56 508 -81 348 -43 569 -103 795 -215 264 -132 513 -349 728
-634 142 -188 235 -447 291 -811 40 -263 60 -496 96 -1115 55 -959 135 -1788
315 -3280 157 -1296 180 -1444 405 -2585 267 -1356 300 -1553 300 -1790 0
-133 -10 -179 -50 -223 l-28 -32 -1049 -6 c-1034 -6 -1302 -14 -1610 -48 -224
-25 -360 -32 -643 -32 -339 0 -562 10 -1100 47 -201 13 -447 27 -546 31 -170
6 -181 7 -176 25 8 30 121 26 1072 -39 368 -25 1082 -25 1310 0 427 47 761 58
1773 58 672 0 858 2 854 12 -7 21 -384 28 -1152 23 -778 -5 -992 -13 -1415
-52 -467 -43 -807 -42 -1465 1 -598 40 -710 46 -832 46 l-132 -1 6 38 c2 20 6
43 9 50 5 18 95 16 540 -13 774 -51 894 -56 1224 -56 282 0 378 3 610 25 474
44 614 49 1630 53 766 2 975 6 975 16 0 21 -766 31 -1470 18 -604 -11 -873
-24 -1180 -56 -347 -37 -803 -31 -1570 21 -203 13 -457 27 -562 31 l-193 6 0
105 0 105 133 -7 c152 -8 632 -39 982 -63 154 -10 378 -16 625 -17 327 0 418
3 605 22 491 49 1019 65 1952 61 451 -3 683 -1 683 6 1 23 -152 26 -1060 21
-973 -5 -1196 -12 -1565 -51 -356 -38 -788 -36 -1415 5 -649 43 -777 50 -857
50 -78 0 -83 1 -87 23 -4 20 -13 183 -51 951 -30 586 -55 1335 -55 1616 0 157
9 652 19 1100 32 1337 34 1550 19 1955 -17 483 -17 940 1 1065 17 121 52 258
86 335 38 84 119 205 209 308 75 87 87 112 64 135 -34 34 -86 -10 -223 -191
-218 -286 -267 -573 -235 -1367 19 -450 15 -1255 -9 -2225 -12 -451 -21 -953
-21 -1115 0 -405 36 -1322 89 -2278 9 -167 14 -305 12 -308 -2 -2 -47 -4 -100
-4 -53 0 -206 -5 -341 -11 l-246 -12 -39 26 c-119 79 -255 74 -364 -12 l-39
-31 -406 7 c-241 5 -409 12 -415 18 -5 6 -13 75 -16 155 -12 236 15 531 100
1119 53 372 84 720 140 1581 26 402 36 585 135 2280 79 1361 118 1986 131
2090 20 169 41 204 151 255 157 72 327 119 803 225 400 89 622 146 796 204 74
25 160 48 190 52 110 12 255 -37 370 -127 29 -23 139 -126 242 -228 183 -180
239 -247 532 -621 374 -478 639 -727 879 -821 88 -35 110 -36 141 -4 55 54 41
116 -273 1230 -271 960 -380 1396 -466 1860 -51 281 -67 416 -76 660 -7 217
-8 221 -43 320 -19 55 -38 108 -42 118 -9 21 -13 21 87 -2z m-2654 -10376
c140 -59 169 -250 53 -348 -97 -81 -248 -51 -309 63 -34 64 -28 152 13 212 56
78 157 108 243 73z m832 -89 l0 -104 -112 -6 c-62 -3 -199 -7 -304 -9 l-192
-2 -11 66 c-7 36 -21 80 -31 97 l-19 31 42 5 c49 7 387 22 530 24 l97 2 0
-104z m-1162 59 c1 -1 -7 -22 -18 -46 -12 -27 -20 -66 -20 -100 l0 -56 -237 4
c-131 2 -293 6 -360 9 l-121 6 -17 76 c-9 43 -18 87 -21 99 l-4 23 397 -6
c219 -4 399 -8 401 -9z m1149 -246 c-3 -22 -7 -42 -9 -44 -2 -3 -619 -23 -625
-20 -1 0 5 22 14 47 l15 47 122 4 c66 1 204 4 305 5 l184 2 -6 -41z m-1166
-28 c8 -20 15 -39 17 -43 4 -10 -268 -10 -520 -1 l-186 6 -16 41 c-9 23 -16
44 -16 46 0 3 159 1 353 -4 l354 -9 14 -36z m1137 -76 c-9 -8 -104 -16 -318
-24 -168 -7 -318 -14 -335 -17 l-30 -6 26 27 26 26 314 7 c173 4 318 6 322 4
5 -3 3 -10 -5 -17z m-1063 -31 c29 -19 29 -19 -180 -22 -116 -2 -283 0 -373 3
-150 7 -163 9 -173 28 l-11 20 354 -5 c325 -5 357 -7 383 -24z"/>
<path d="M6590 12606 c-3 -2 -237 -10 -520 -15 -662 -14 -1072 -35 -1474 -77
-304 -31 -375 -53 -469 -147 -55 -54 -107 -156 -133 -262 -10 -38 -26 -77 -35
-85 -28 -25 -37 -52 -53 -162 -64 -426 54 -1046 329 -1743 96 -242 239 -533
431 -878 124 -221 188 -350 207 -417 10 -33 25 -60 37 -68 30 -18 74 -6 91 24
28 54 -18 172 -192 484 -351 631 -537 1068 -667 1566 -44 169 -44 176 19 255
38 48 147 103 244 123 192 39 265 41 1695 41 1096 0 1403 -3 1470 -13 174 -27
309 -72 368 -121 22 -19 22 -20 12 -163 -24 -337 -84 -683 -196 -1138 -61
-243 -96 -348 -139 -416 -20 -31 -96 -119 -170 -195 -144 -151 -185 -213 -185
-285 0 -48 25 -74 71 -74 33 0 46 15 64 77 12 41 31 66 110 144 178 175 258
287 301 424 74 233 201 809 244 1104 27 189 70 814 69 1016 0 88 -6 200 -13
248 -10 74 -17 92 -39 113 -15 14 -27 34 -27 45 0 27 -36 171 -58 229 -21 59
-67 138 -100 173 -40 42 -158 113 -229 136 -141 47 -206 53 -643 58 -228 3
-417 2 -420 -1z m714 -56 c275 -20 430 -71 532 -176 62 -63 102 -152 135 -300
21 -95 21 -104 7 -135 -13 -28 -14 -46 -6 -99 21 -143 9 -637 -16 -626 -124
55 -227 85 -376 108 -67 10 -380 13 -1495 13 -1276 0 -1422 -2 -1540 -17 -229
-30 -344 -72 -428 -155 l-44 -43 -11 72 c-29 185 -35 254 -35 408 0 113 5 198
17 271 17 98 17 108 2 131 -15 23 -15 30 9 112 30 104 41 127 93 192 56 71
133 110 258 128 361 54 881 82 1934 107 256 6 470 12 475 14 23 8 361 4 489
-5z"/>
<path d="M8256 11608 c-2 -7 -9 -202 -15 -433 -25 -925 -81 -1328 -252 -1808
-56 -158 -61 -190 -26 -185 44 6 183 452 237 758 65 372 105 961 98 1445 -3
210 -5 230 -21 233 -9 2 -19 -2 -21 -10z"/>
<path d="M4780 10625 l0 -455 1265 0 1265 0 0 455 0 455 -1265 0 -1265 0 0
-455z m2500 -5 l0 -420 -1232 2 -1233 3 -3 418 -2 417 1235 0 1235 0 0 -420z"/>
<path d="M3397 10553 c-16 -167 -1 -566 28 -765 8 -54 31 -164 51 -245 30
-119 38 -174 43 -287 7 -153 23 -186 31 -64 8 108 -5 217 -44 373 -60 245 -77
415 -77 793 0 209 -3 262 -13 262 -9 0 -15 -22 -19 -67z"/>
<path d="M3253 10323 c-5 -10 -8 -112 -7 -228 0 -231 14 -356 80 -720 103
-574 96 -520 90 -735 -7 -253 -37 -469 -92 -679 -23 -89 -22 -129 4 -98 28 33
81 294 106 517 38 340 34 403 -49 860 -107 584 -127 798 -102 1069 2 29 -20
40 -30 14z"/>
<path d="M3143 9934 c-9 -24 4 -223 22 -344 9 -58 41 -235 72 -395 l57 -290 0
-215 c0 -118 -5 -255 -12 -305 -25 -177 -44 -281 -69 -378 -18 -71 -22 -102
-14 -110 38 -38 117 387 137 738 8 146 -1 223 -67 567 -68 361 -103 606 -99
692 1 17 2 37 1 44 -1 17 -20 15 -28 -4z"/>
<path d="M2975 5400 c-31 -45 -94 -122 -141 -173 -106 -116 -144 -187 -144
-272 0 -197 197 -512 831 -1325 233 -300 365 -524 425 -725 23 -76 28 -109 28
-215 1 -151 -19 -221 -95 -335 -154 -230 -431 -382 -1159 -637 -356 -125 -454
-161 -618 -229 -170 -71 -302 -136 -302 -149 0 -23 26 -17 117 28 138 70 376
163 757 297 411 145 576 210 741 290 319 156 505 331 569 534 31 99 39 179 27
271 -34 263 -163 506 -500 940 -263 339 -321 415 -431 570 -268 373 -376 595
-355 724 10 59 42 107 145 221 129 142 208 265 171 265 -5 0 -35 -36 -66 -80z"/>
<path d="M6350 8341 c0 -5 42 -33 93 -62 134 -76 233 -146 277 -197 35 -39 60
-48 60 -21 0 21 -88 103 -164 153 -157 103 -266 155 -266 127z"/>
<path d="M6176 8243 c-16 -16 -4 -33 23 -33 83 0 397 -134 479 -205 34 -30 46
-35 55 -26 20 21 -66 87 -188 147 -154 74 -350 136 -369 117z"/>
<path d="M5986 8131 c-14 -22 6 -31 69 -31 166 0 486 -95 591 -175 39 -30 44
-31 44 -6 0 48 -232 149 -439 191 -128 26 -256 36 -265 21z"/>
<path d="M5795 8019 c-4 -6 -5 -13 -2 -15 3 -3 79 -7 169 -9 249 -5 498 -57
622 -130 48 -28 66 -31 66 -11 0 33 -210 117 -365 145 -172 31 -476 44 -490
20z"/>
<path d="M5657 7923 c-38 -3 -48 -8 -45 -20 3 -14 15 -16 83 -12 160 8 452 3
540 -10 110 -16 240 -53 305 -86 56 -28 70 -31 70 -12 0 29 -143 88 -290 119
-78 17 -140 21 -355 23 -143 1 -282 1 -308 -2z"/>
<path d="M6060 6765 c-107 -30 -179 -101 -201 -200 -22 -97 24 -200 116 -259
56 -37 109 -49 195 -44 117 7 204 61 246 153 96 204 -119 416 -356 350z m156
-90 c77 -23 134 -91 134 -160 0 -67 -52 -131 -126 -155 -59 -20 -155 -9 -204
24 -51 34 -85 101 -77 153 11 63 69 120 147 144 39 12 72 10 126 -6z"/>
<path d="M9928 6374 c-55 -20 -223 -42 -413 -55 -196 -13 -1173 -7 -1480 10
-322 18 -547 32 -613 40 -46 6 -67 4 -76 -5 -10 -9 -14 -157 -19 -621 -4 -334
-14 -846 -23 -1138 -23 -757 -24 -690 6 -690 l25 0 7 140 c14 294 28 826 40
1530 l12 731 70 -8 c306 -32 1216 -62 1666 -55 469 7 704 28 831 72 46 17 60
30 52 52 -6 16 -36 15 -85 -3z"/>
<path d="M10214 6096 c-3 -9 1 -220 10 -469 33 -919 37 -1072 41 -1522 3 -307
8 -461 15 -463 6 -2 17 2 25 8 13 11 15 73 15 414 0 220 -5 534 -10 696 -35
1075 -42 1269 -49 1305 -7 42 -36 60 -47 31z"/>
<path d="M5957 4151 c-199 -66 -256 -290 -108 -424 67 -59 132 -81 229 -75
162 10 272 113 272 255 -1 182 -202 307 -393 244z m218 -105 c161 -95 81 -306
-115 -306 -128 0 -227 99 -200 201 33 122 194 175 315 105z"/>
<path d="M7270 3665 c-17 -20 -8 -142 15 -208 21 -59 84 -125 150 -156 55 -26
197 -54 248 -49 27 2 32 7 32 28 0 24 -3 25 -83 32 -209 17 -301 95 -310 262
-5 99 -22 127 -52 91z"/>
<path d="M9244 3329 c-350 -7 -753 -21 -966 -35 -103 -7 -132 -20 -108 -48 8
-11 25 -14 58 -10 92 9 792 34 1127 40 302 5 408 2 560 -18 30 -4 33 37 3 53
-35 19 -266 25 -674 18z"/>
</g>
</svg>
